<?xml version="1.0" encoding="UTF-8" standalone="no"?>
<svg
   width="720"
   height="360"
   viewBox="0 0 539.99959 269.99979"
   version="1.1"
   id="svg1"
   sodipodi:docname="driveon-skeleton.svg"
   inkscape:export-filename="driveon-skeleton.png"
   inkscape:export-xdpi="96"
   inkscape:export-ydpi="96"
   inkscape:version="1.3 (0e150ed6c4, 2023-07-21)"
   xmlns:inkscape="http://www.inkscape.org/namespaces/inkscape"
   xmlns:sodipodi="http://sodipodi.sourceforge.net/DTD/sodipodi-0.dtd"
   xmlns:xlink="http://www.w3.org/1999/xlink"
   xmlns="http://www.w3.org/2000/svg"
   xmlns:svg="http://www.w3.org/2000/svg">
  <defs
     id="defs1">
    <linearGradient
       id="swatch32"
       inkscape:swatch="solid">
      <stop
         style="stop-color:#000000;stop-opacity:1;"
         offset="0"
         id="stop32" />
    </linearGradient>
    <linearGradient
       id="linearGradient19"
       inkscape:collect="always">
      <stop
         style="stop-color:#00a464;stop-opacity:1;"
         offset="0"
         id="stop19" />
      <stop
         style="stop-color:#fff500;stop-opacity:1;"
         offset="1"
         id="stop20" />
    </linearGradient>
    <linearGradient
       id="linearGradient16"
       inkscape:collect="always">
      <stop
         style="stop-color:#00a464;stop-opacity:1;"
         offset="0"
         id="stop16" />
      <stop
         style="stop-color:#fff500;stop-opacity:1;"
         offset="1"
         id="stop17" />
    </linearGradient>
    <linearGradient
       id="linearGradient14"
       inkscape:collect="always">
      <stop
         style="stop-color:#00a464;stop-opacity:1;"
         offset="0"
         id="stop14" />
      <stop
         style="stop-color:#fff500;stop-opacity:1;"
         offset="1"
         id="stop15" />
    </linearGradient>
    <linearGradient
       id="linearGradient12"
       inkscape:collect="always">
      <stop
         style="stop-color:#00a464;stop-opacity:1;"
         offset="0"
         id="stop12" />
      <stop
         style="stop-color:#fff500;stop-opacity:1;"
         offset="1"
         id="stop13" />
    </linearGradient>
    <linearGradient
       id="linearGradient9"
       inkscape:collect="always">
      <stop
         style="stop-color:#00a464;stop-opacity:1;"
         offset="0"
         id="stop9" />
      <stop
         style="stop-color:#fff500;stop-opacity:1;"
         offset="1"
         id="stop10" />
    </linearGradient>
    <linearGradient
       inkscape:collect="always"
       xlink:href="#linearGradient9"
       id="linearGradient10"
       x1="15.018395"
       y1="213.74997"
       x2="285.18372"
       y2="213.17319"
       gradientUnits="userSpaceOnUse"
       gradientTransform="matrix(1.8586526,0,0,1.8586526,-8.8925476,-140.26925)" />
    <linearGradient
       inkscape:collect="always"
       xlink:href="#linearGradient12"
       id="linearGradient13"
       x1="15.018395"
       y1="213.74997"
       x2="285.18372"
       y2="213.17319"
       gradientUnits="userSpaceOnUse"
       gradientTransform="matrix(1.8586526,0,0,1.8586526,-8.8925476,-140.26925)" />
    <linearGradient
       inkscape:collect="always"
       xlink:href="#linearGradient14"
       id="linearGradient15"
       x1="15.018395"
       y1="213.74997"
       x2="285.18372"
       y2="213.17319"
       gradientUnits="userSpaceOnUse"
       gradientTransform="matrix(1.8586526,0,0,1.8586526,-8.8925476,-140.26925)" />
    <linearGradient
       inkscape:collect="always"
       xlink:href="#linearGradient16"
       id="linearGradient17"
       x1="14.815291"
       y1="213.17319"
       x2="285.18372"
       y2="213.17319"
       gradientUnits="userSpaceOnUse"
       gradientTransform="matrix(1.8586526,0,0,1.8586526,-8.8925476,-140.26925)" />
    <linearGradient
       inkscape:collect="always"
       xlink:href="#linearGradient19"
       id="linearGradient20"
       x1="15.490711"
       y1="148.10141"
       x2="284.61093"
       y2="148.10141"
       gradientUnits="userSpaceOnUse"
       gradientTransform="matrix(1.8586526,0,0,1.8586526,-8.8925476,-140.26925)" />
  </defs>
  <sodipodi:namedview
     id="namedview1"
     pagecolor="#ffffff"
     bordercolor="#000000"
     borderopacity="0.25"
     inkscape:showpageshadow="2"
     inkscape:pageopacity="0.0"
     inkscape:pagecheckerboard="0"
     inkscape:deskcolor="#d1d1d1"
     inkscape:document-units="in"
     inkscape:zoom="0.80027493"
     inkscape:cx="267.4081"
     inkscape:cy="204.30479"
     inkscape:window-width="1440"
     inkscape:window-height="837"
     inkscape:window-x="-8"
     inkscape:window-y="-8"
     inkscape:window-maximized="1"
     inkscape:current-layer="svg1" />
  <path
     d="m 158.83257,217.75977 c 4.68762,0.0463 9.1778,0.19189 13.43076,0.41111 4.25292,0.21925 8.26686,0.51167 12.00679,0.84403 3.73994,0.33235 7.20557,0.70616 10.35419,1.09177 6.29719,0.77122 11.33286,1.58846 14.79477,2.2135 3.46191,0.62506 5.34999,1.05638 5.34999,1.05638 0,0 -4.50894,0.26832 -12.11028,0.80589 -7.60134,0.5376 -18.29606,1.34448 -30.66501,2.43133 -6.18449,0.54343 -12.78787,1.15757 -19.63292,1.84049 -6.84506,0.68292 -13.93265,1.4359 -21.08406,2.25978 -7.15142,0.82389 -14.36715,1.71822 -21.47069,2.68453 -7.10355,0.9663 -14.094016,2.00453 -20.795476,3.1147 -5.24612,0.8676 -10.249113,1.81624 -14.985387,2.80975 -4.736257,0.99352 -9.205182,2.0323 -13.389901,3.08474 -4.184719,1.05244 -8.083169,2.11654 -11.674662,3.16097 -3.591493,1.04444 -6.877571,2.06902 -9.83415,3.03848 -5.913154,1.9389 -10.514322,3.66072 -13.637658,4.89801 -3.123335,1.23729 -4.767332,1.99024 -4.767332,1.99024 0,0 -0.25722,-1.21855 -0.44379,-3.13103 -0.09331,-0.95624 -0.170439,-2.08704 -0.187874,-3.32433 -0.01673,-1.23729 0.02342,-2.58266 0.163376,-3.96959 0.139957,-1.38696 0.380615,-2.81488 0.759613,-4.2201 0.378997,-1.40519 0.89851,-2.78642 1.598199,-4.07849 0.349836,-0.64605 0.744466,-1.26916 1.18978,-1.8623 0.445333,-0.59311 0.940998,-1.15606 1.492015,-1.67984 0.550997,-0.52381 1.15727,-1.01043 1.824155,-1.44846 0.666885,-0.43803 1.393303,-0.82944 2.186278,-1.16528 1.585969,-0.66859 3.291023,-1.2963 5.102206,-1.8895 1.811201,-0.59323 3.728587,-1.15146 5.739314,-1.67442 2.010747,-0.52297 4.115615,-1.01238 6.300182,-1.47024 2.184567,-0.45784 4.449391,-0.88449 6.782075,-1.28235 4.665385,-0.79569 9.601297,-1.47457 14.704953,-2.06103 5.103637,-0.58648 10.37602,-1.07919 15.712308,-1.49747 5.3363,-0.41824 10.73563,-0.76259 16.09894,-1.05364 5.363316,-0.29104 10.688246,-0.53026 15.872946,-0.73511 10.3694,-0.40971 20.1774,-0.68552 28.59854,-0.99648 5.04398,-0.18659 9.93019,-0.2423 14.61782,-0.19604 z"
     style="opacity:1;fill:url(#linearGradient10);fill-opacity:1;stroke:none;stroke-width:0;stroke-dasharray:none"
     id="path8" />
  <path
     d="m 227.43203,212.97883 c 0,0 4.68443,0.0167 12.41521,0.2641 3.8654,0.1238 8.49343,0.30601 13.6758,0.57174 5.18234,0.26575 10.91943,0.61444 17.00829,1.07545 6.08884,0.46102 12.52802,1.03555 19.11287,1.7452 6.58485,0.70966 13.31648,1.55581 19.98685,2.56746 3.33519,0.5058 6.6553,1.05314 9.93492,1.64445 3.27959,0.59133 6.51713,1.22781 9.68983,1.91129 3.1727,0.68348 6.28058,1.41213 9.29507,2.19446 3.01449,0.7823 5.93741,1.617 8.74238,2.50482 1.40714,0.44468 2.76109,0.96538 4.06489,1.54918 1.3038,0.5838 2.55745,1.22969 3.75996,1.93034 1.20251,0.70066 2.35447,1.45635 3.45775,2.25161 1.10327,0.79528 2.15759,1.63177 3.16371,2.49939 1.00608,0.86761 1.96412,1.76408 2.87509,2.68179 0.91095,0.91771 1.77406,1.85604 2.59194,2.80159 1.63577,1.8911 3.08862,3.81592 4.36437,5.68485 1.27579,1.86894 2.37583,3.68123 3.30802,5.34998 0.93219,1.66875 1.69559,3.19364 2.30063,4.48418 1.21006,2.58108 1.78331,4.22825 1.78331,4.22825 0,0 -2.63532,-0.23637 -6.91004,-0.69428 -4.27472,-0.45789 -10.18929,-1.13663 -16.75237,-2.02292 -3.28152,-0.44312 -6.72594,-0.93914 -10.20715,-1.48383 -3.4812,-0.54468 -7.00057,-1.13805 -10.43313,-1.78059 -3.43256,-0.64255 -6.77748,-1.33522 -9.91311,-2.07194 -3.13562,-0.73671 -6.06212,-1.51973 -8.65253,-2.34689 -1.04798,-0.33275 -1.95905,-0.77186 -2.7553,-1.28782 -0.79625,-0.51597 -1.47658,-1.1075 -2.05559,-1.74248 -0.579,-0.63497 -1.05764,-1.31414 -1.45389,-2.00387 -0.39623,-0.68972 -0.71037,-1.38893 -0.95837,-2.0692 -0.496,-1.3605 -0.72855,-2.64034 -0.83857,-3.57753 -0.10998,-0.9372 -0.098,-1.53285 -0.098,-1.53285 0,0 -0.19707,-0.64235 -0.63437,-1.64991 -0.43732,-1.00755 -1.11258,-2.38006 -2.07195,-3.84164 -0.47966,-0.73077 -1.03199,-1.48388 -1.65807,-2.22438 -0.62607,-0.74051 -1.32698,-1.46986 -2.11004,-2.1509 -0.78307,-0.68103 -1.64673,-1.31535 -2.59739,-1.86772 -0.95065,-0.55236 -1.98857,-1.02313 -3.11741,-1.37766 -2.92004,-0.91736 -6.1787,-1.79435 -9.64359,-2.63006 -3.46485,-0.83569 -7.13532,-1.62954 -10.88508,-2.37413 -3.74973,-0.7446 -7.57869,-1.44148 -11.35337,-2.08554 -3.77469,-0.64406 -7.49518,-1.23562 -11.03484,-1.76972 -7.07929,-1.06818 -13.42802,-1.90579 -18.00751,-2.47759 -4.57945,-0.57181 -7.38922,-0.87668 -7.38922,-0.87668 z"
     style="fill:url(#linearGradient13);stroke:none;stroke-width:2.1293;stroke-opacity:1"
     id="path6" />
  <path
     d="m 155.68249,160.90846 c 2.09905,-0.0203 4.13645,0.0937 6.1123,0.324 1.97586,0.23032 3.89208,0.57703 5.74475,1.03187 1.85269,0.45485 3.64225,1.01564 5.37177,1.66897 1.72951,0.65335 3.39781,1.4013 5.0042,2.22711 1.60635,0.82584 3.15065,1.7313 4.63391,2.70358 1.48326,0.9723 2.90621,2.01108 4.26637,3.1038 1.36016,1.09274 2.65899,2.23793 3.89608,3.42507 1.23711,1.18716 2.41177,2.41455 3.52582,3.67012 1.11405,1.25555 2.16721,2.54098 3.15826,3.83891 0.99102,1.29793 1.91991,2.60902 2.78798,3.92332 0.86805,1.31429 1.67533,2.62956 2.42041,3.93421 0.74507,1.30464 1.428,2.59988 2.05015,3.86886 1.24428,2.53793 2.24224,4.97858 2.99489,7.2177 0.75265,2.2391 1.26073,4.27674 1.52195,6.00884 -1.84096,0.29851 -4.40958,0.46018 -6.51798,0.54726 -2.10839,0.087 -3.75724,0.098 -3.75724,0.098 0,0 -0.40618,-1.18812 -1.25514,-2.98127 -0.42448,-0.89657 -0.95952,-1.94595 -1.60907,-3.07112 -0.64954,-1.12519 -1.41474,-2.32665 -2.2979,-3.53399 -0.88317,-1.20735 -1.88591,-2.41815 -3.01122,-3.5612 -1.12534,-1.14307 -2.37302,-2.21776 -3.74907,-3.1501 -0.68805,-0.46616 -1.40947,-0.89633 -2.16179,-1.28236 -0.75231,-0.38602 -1.53468,-0.72796 -2.35234,-1.01553 -0.81766,-0.28758 -1.66974,-0.52345 -2.55383,-0.69428 -0.8841,-0.1708 -1.80102,-0.27735 -2.75259,-0.31311 -1.1506,0.0435 -2.24499,0.1227 -3.28077,0.2505 -1.03579,0.12767 -2.01316,0.30352 -2.92684,0.53635 -0.91367,0.23285 -1.76409,0.52345 -2.54837,0.88213 -0.78428,0.35869 -1.50328,0.7852 -2.15089,1.29054 -0.6476,0.50532 -1.22524,1.08875 -1.72886,1.76154 -0.50364,0.67277 -0.93272,1.4369 -1.2851,2.29791 -0.35236,0.861 -0.6284,1.82138 -0.82223,2.89142 -0.19381,1.07004 -0.30417,2.24772 -0.33215,3.54759 3.15949,0 17.19069,0.22598 17.19069,0.22598 0.98269,-0.0124 2.16446,0.10916 3.38424,0.3485 1.21979,0.23945 2.47594,0.59614 3.60478,1.05638 0.56439,0.23012 1.09623,0.48557 1.5764,0.76507 0.48016,0.27948 0.9084,0.58167 1.2633,0.90664 0.35489,0.32497 0.63633,0.67349 0.82495,1.04005 0.18863,0.36654 0.28549,0.75284 0.26682,1.1571 -1.25321,-0.17731 -3.16614,-0.32577 -5.55418,-0.44924 -2.38802,-0.12338 -5.25091,-0.22348 -8.40477,-0.30219 -6.30768,-0.15743 -13.77727,-0.23418 -20.93431,-0.26683 -14.31411,-0.0652 -27.37609,0.0463 -27.37609,0.0463 0,0 0.0857,-1.05824 0.33488,-2.88326 0.24918,-1.82503 0.66044,-4.41519 1.31504,-7.47363 0.32729,-1.52921 0.71551,-3.17683 1.17346,-4.90347 0.45795,-1.72662 0.98731,-3.53255 1.59545,-5.38263 0.60815,-1.85011 1.29678,-3.74443 2.07465,-5.64402 0.77788,-1.89962 1.64388,-3.80425 2.61102,-5.67941 -2.23901,2.27009 -4.16557,4.41065 -5.83188,6.43086 -1.66634,2.02021 -3.07264,3.92029 -4.26637,5.70391 -1.19376,1.78362 -2.17637,3.45202 -2.99762,5.01238 -0.82127,1.56035 -1.47951,3.01125 -2.02837,4.36164 -1.09773,2.7008 -1.75179,4.9964 -2.36052,6.93728 -0.30437,0.97043 -0.5989,1.85143 -0.93114,2.65185 -0.33227,0.8004 -0.70232,1.51805 -1.16255,2.16175 -2.13329,0.0684 -5.52782,0.43086 -9.55646,0.9121 -4.02867,0.48122 -8.691876,1.08393 -13.362686,1.62812 -4.67081,0.54422 -9.34923,1.03048 -13.40897,1.28782 -2.02987,0.12863 -3.903875,0.19924 -5.545995,0.19058 -1.642137,-0.01 -3.051573,-0.096 -4.149292,-0.28588 0.09646,-0.66857 0.368348,-1.45241 0.803161,-2.3333 0.43483,-0.88087 1.031737,-1.85924 1.777894,-2.91867 0.746137,-1.0594 1.640558,-2.19904 2.670902,-3.40328 1.030344,-1.20424 2.19754,-2.47185 3.48497,-3.78719 1.28742,-1.31532 2.69722,-2.67766 4.21463,-4.07034 1.5174,-1.39266 3.14237,-2.81646 4.86262,-4.25275 1.72026,-1.43628 3.53564,-2.88554 5.43166,-4.33171 1.89601,-1.44616 3.87164,-2.8876 5.916266,-4.30992 2.04465,-1.42232 4.15851,-2.82541 6.32469,-4.19012 2.16617,-1.36474 4.38538,-2.69347 6.64595,-3.96689 2.26057,-1.2734 4.56037,-2.4918 6.88827,-3.64016 2.32786,-1.14836 4.68356,-2.22587 7.05161,-3.21542 2.36806,-0.98959 4.74946,-1.89019 7.13058,-2.68725 2.38114,-0.79706 4.76076,-1.49023 7.12785,-2.06104 2.36709,-0.5708 4.72296,-1.02055 7.04891,-1.33137 2.32593,-0.31082 4.62242,-0.48386 6.8801,-0.50096 z"
     style="fill:url(#linearGradient17);stroke:none;stroke-width:2.1293"
     id="path4" />
  <path
     d="m 218.53719,160.39934 c 9.13664,-0.0499 17.95636,0.0399 26.45311,0.32397 4.24838,0.14201 8.41461,0.33326 12.4996,0.57992 4.08501,0.24668 8.09019,0.5493 12.00954,0.91481 3.91936,0.36553 7.75443,0.79475 11.50585,1.29326 3.75144,0.49851 7.4182,1.06688 10.99943,1.71254 3.58126,0.64565 7.0761,1.36842 10.48487,2.17538 3.40879,0.80695 6.7308,1.69665 9.96485,2.67907 3.23404,0.9824 6.3796,2.05705 9.43664,3.22905 3.05704,1.17201 6.02524,2.44135 8.90302,3.81712 2.87776,1.37577 5.66499,2.85785 8.3612,4.45151 2.69622,1.59368 5.30157,3.29827 7.81396,5.124 2.5124,1.82572 4.93224,3.77084 7.25854,5.84278 2.32629,2.07192 4.55974,4.27279 6.69767,6.60511 -22.71348,0.64681 -138.99315,4.37797 -138.99315,4.37797 0,0 -1.26453,-2.1194 -3.34067,-5.43437 -2.07613,-3.31497 -4.96337,-7.82576 -8.21147,-12.60851 -1.62406,-2.39138 -3.33836,-4.852 -5.08587,-7.26399 -1.74753,-2.41197 -3.52939,-4.77642 -5.28737,-6.97811 -1.75796,-2.20168 -3.49037,-4.24017 -5.14577,-6.00067 -1.6554,-1.76051 -3.23224,-3.24331 -4.67204,-4.33172 9.75834,-0.27055 19.21142,-0.45923 28.34806,-0.50912 z"
     style="fill:url(#linearGradient15);stroke:none;stroke-width:2.15999834;stroke-opacity:0;stroke-dasharray:none"
     id="path2" />
  <path
     d="m 268.6772,15.9963 c -4.27586,0.129826 -8.51757,0.357058 -12.7283,0.677936 -4.21075,0.320878 -8.38792,0.736123 -12.52956,1.241521 -4.14165,0.505398 -8.24858,1.099932 -12.31719,1.783325 -4.06861,0.683391 -8.09958,1.453933 -12.09122,2.308792 -3.99163,0.854861 -7.94365,1.795403 -11.85434,2.815204 -3.91071,1.019802 -7.78078,2.118892 -11.6066,3.297108 -3.82581,1.178217 -7.60821,2.435296 -11.34522,3.765402 -3.73698,1.330108 -7.42871,2.733722 -11.07294,4.209192 -3.6442,1.475469 -7.23958,3.022338 -10.78706,4.636645 -3.5475,1.614307 -7.04622,3.295699 -10.49304,5.042324 -3.44682,1.746613 -6.84317,3.559245 -10.18537,5.431651 -3.34221,1.872407 -6.63047,3.804829 -9.86411,5.796488 -3.23362,1.991658 -6.41353,4.04058 -9.53466,6.144984 -3.12112,2.104384 -6.18423,4.263823 -9.18888,6.474412 -3.00465,2.210607 -5.9507,4.474538 -8.83495,6.784807 -2.88424,2.310285 -5.707496,4.667244 -8.467386,7.070686 -2.75988,2.403423 -5.45465,4.852886 -8.08622,7.342941 -2.63157,2.490056 -5.20029,5.020536 -7.699599,7.590701 -2.499331,2.570161 -4.93082,5.178391 -7.293948,7.822121 -2.36311,2.64375 -4.657114,5.3237 -6.8801,8.03449 -2.222967,2.71078 -4.373762,5.45376 -6.452628,8.22507 -2.078885,2.77131 -4.086192,5.57129 -6.017016,8.39661 -1.930842,2.8253 -3.786243,5.67629 -5.565067,8.54907 -1.778841,2.87278 -3.479322,5.76603 -5.102223,8.67976 -1.622884,2.91371 -3.168204,5.84595 -4.631206,8.79409 -1.463,2.94813 -2.844685,5.91337 -4.143846,8.8894 -1.299162,2.97603 -2.514219,5.96279 -3.645598,8.96019 -1.131382,2.99739 -2.17955,6.00512 -3.139191,9.01736 -0.95966,3.01224 -1.832501,6.02948 -2.616463,9.05004 -0.783961,3.02055 -1.478483,6.04403 -2.082806,9.06636 -0.60434,3.02234 -1.117532,6.04334 -1.538295,9.06093 -0.420742,3.0176 -0.749631,6.03282 -0.982874,9.03915 1.694813,-1.39938 3.246286,-2.57692 4.67204,-3.56393 1.425771,-0.987 2.72549,-1.78468 3.917871,-2.42859 1.192382,-0.6439 2.277929,-1.1328 3.272605,-1.50289 0.994676,-0.37011 1.898168,-0.62125 2.730806,-0.78683 0.83264,-0.16562 1.594372,-0.24462 2.300622,-0.27499 0.706251,-0.0303 1.358378,-0.0111 1.973907,0.0246 1.231079,0.0712 2.315659,0.20338 3.397859,0.12256 0.388719,-0.0373 0.894142,-0.16747 1.500157,-0.38118 0.606031,-0.21373 1.313918,-0.50915 2.110053,-0.88213 1.59227,-0.74594 3.536049,-1.79418 5.725691,-3.07385 2.189641,-1.27965 4.623695,-2.79209 7.193208,-4.46784 2.569513,-1.67576 5.275358,-3.51374 8.007262,-5.44799 2.731903,-1.93425 5.491091,-3.96459 8.167904,-6.01975 2.676794,-2.05514 5.270875,-4.1365 7.675105,-6.17492 2.4042,-2.03844 4.61745,-4.03491 6.53158,-5.91901 1.91415,-1.88412 3.53081,-3.65434 4.73739,-5.2465 0.95157,-1.10708 1.99502,-2.20456 3.13374,-3.28895 1.13874,-1.0844 2.37146,-2.15784 3.697346,-3.21272 1.32589,-1.05488 2.74517,-2.09345 4.2582,-3.11196 1.51303,-1.0185 3.11891,-2.0169 4.81906,-2.99218 1.70015,-0.97528 3.49539,-1.92539 5.38264,-2.85059 1.88726,-0.92521 3.86643,-1.82439 5.94079,-2.69268 2.07436,-0.86831 4.24293,-1.70576 6.50439,-2.51028 2.26143,-0.80452 4.6167,-1.57762 7.06522,-2.31152 2.44853,-0.73388 4.99052,-1.42911 7.6261,-2.08553 2.63559,-0.65642 5.36432,-1.27384 8.18696,-1.84594 2.82264,-0.57208 5.73814,-1.09822 8.74782,-1.57912 3.00967,-0.48094 6.11469,-0.91582 9.3114,-1.29871 3.19672,-0.38287 6.48583,-0.71575 9.86954,-0.99376 3.38374,-0.278 6.8624,-0.50077 10.43314,-0.66705 3.57073,-0.16636 7.23355,-0.27629 10.99128,-0.32398 3.7577,-0.0478 7.61015,-0.0343 11.55485,0.0435 5.24922,0.0388 10.37394,0.19771 15.37743,0.46556 5.00349,0.26784 9.88469,0.64584 14.64233,1.12444 4.75763,0.47863 9.39281,1.05775 13.90449,1.72889 4.51167,0.67114 8.90106,1.43339 13.16666,2.27884 4.26557,0.84546 8.40672,1.77281 12.42609,2.77436 4.01935,1.00156 7.91525,2.07873 11.68826,3.21815 3.77303,1.13942 7.42388,2.34295 10.95042,3.60204 3.52658,1.25908 6.9299,2.5737 10.20988,3.9342 3.28,1.3605 6.43605,2.76549 9.46934,4.20919 3.03329,1.44373 5.94501,2.92647 8.73148,4.43518 2.78645,1.5087 5.44868,3.04305 7.98821,4.59852 2.53951,1.55547 4.95519,3.1316 7.24765,4.71561 2.29245,1.58402 4.46183,3.17843 6.50709,4.77278 2.04526,1.59433 3.96586,3.18904 5.76381,4.77549 1.79796,1.58645 3.47274,3.16345 5.02326,4.72376 1.55053,1.56035 2.97701,3.10432 4.27999,4.62032 4.43136,0.0575 8.8336,0.18732 13.19115,0.38932 4.35755,0.20205 8.67201,0.47514 12.92979,0.81409 4.25778,0.33893 8.45741,0.7433 12.58945,1.21157 4.13204,0.46825 8.19526,1.00003 12.17562,1.59001 3.98037,0.58997 7.87738,1.23987 11.68009,1.94397 3.80271,0.70411 7.51198,1.46275 11.11109,2.27338 3.59909,0.81065 7.0881,1.67148 10.45763,2.58108 3.36953,0.90958 6.61941,1.8687 9.7334,2.86965 3.11401,1.00094 6.09229,2.0436 8.9248,3.12829 2.83252,1.08472 5.51758,2.20975 8.04266,3.37063 2.52508,1.16088 4.8899,2.35898 7.08157,3.58843 2.19168,1.22946 4.21195,2.4913 6.04424,3.78174 1.83231,1.29044 3.47826,2.60942 4.92525,3.95326 1.44699,1.34383 2.69429,2.71338 3.73001,4.10301 0.51786,0.69483 0.98382,1.39431 1.39399,2.09915 0.41017,0.70484 0.76532,1.41518 1.06455,2.1291 0.29924,0.71394 0.54188,1.43156 0.72695,2.15361 0.18512,0.72205 0.3108,1.44614 0.37844,2.17539 0.54732,1.47711 1.09136,2.69853 1.63357,3.71095 0.54222,1.01239 1.08219,1.81638 1.63086,2.46397 0.54867,0.64761 1.105,1.13926 1.6717,1.52197 0.56671,0.38266 1.1462,0.65626 1.7425,0.87395 1.19256,0.43536 2.45585,0.64082 3.83617,1.01554 0.69018,0.18735 1.40732,0.4185 2.16178,0.74056 0.75445,0.32206 1.54384,0.73661 2.37414,1.29325 0.15557,-3.75812 0.19473,-7.51304 0.11993,-11.25809 -0.0749,-3.74506 -0.26385,-7.48094 -0.56357,-11.20635 -0.29975,-3.72543 -0.70899,-7.4391 -1.22791,-11.1383 -0.51893,-3.69921 -1.14613,-7.38475 -1.87862,-11.05117 -0.73248,-3.66642 -1.56983,-7.31522 -2.51027,-10.94227 -0.94044,-3.62705 -1.98554,-7.23318 -3.12832,-10.81431 -1.14275,-3.58109 -2.38508,-7.13596 -3.72454,-10.66454 -1.33948,-3.52859 -2.77391,-7.02899 -4.3045,-10.49849 -1.53057,-3.46946 -3.15746,-6.90951 -4.8735,-10.31332 -1.71605,-3.4038 -3.52215,-6.77215 -5.41805,-10.10368 -1.89589,-3.33157 -3.88153,-6.62501 -5.95168,-9.87772 -2.07013,-3.25272 -4.22477,-6.46538 -6.46352,-9.63267 -2.23876,-3.16731 -4.56002,-6.29056 -6.96179,-9.36586 -2.40174,-3.07532 -4.88451,-6.10324 -7.44368,-9.07998 -2.55914,-2.97676 -5.1956,-5.90072 -7.90652,-8.77234 -2.71092,-2.871599 -5.49598,-5.688442 -8.35304,-8.448318 -2.85707,-2.759895 -5.78562,-5.463695 -8.78322,-8.105287 -2.9976,-2.641591 -6.06454,-5.221011 -9.19705,-7.737719 -3.13251,-2.51671 -6.33004,-4.971302 -9.59184,-7.356566 -3.26181,-2.385246 -6.58753,-4.703655 -9.97301,-6.950877 -3.38546,-2.247224 -6.83158,-4.423557 -10.33512,-6.526158 -3.50352,-2.1026 -7.06491,-4.130947 -10.68088,-6.082366 -3.61597,-1.951417 -7.28754,-3.825859 -11.01034,-5.61951 -3.72279,-1.793647 -7.4967,-3.505582 -11.32072,-5.134886 -3.82398,-1.629304 -7.69788,-3.175541 -11.61746,-4.633922 -3.91958,-1.45838 -7.88563,-2.830297 -11.89519,-4.111176 -4.0096,-1.281022 -8.0627,-2.469989 -12.15661,-3.566792 -4.09389,-1.096802 -8.22625,-2.099642 -12.39887,-3.005787 -4.17264,-0.906147 -8.38456,-1.716954 -12.6303,-2.425867 -4.24575,-0.708913 -8.5267,-1.316342 -12.83995,-1.821442 -4.31323,-0.505101 -8.65812,-0.90597 -13.03324,-1.200682 -4.3751,-0.29471 -8.78158,-0.483118 -13.21294,-0.560862 z"
     style="fill:url(#linearGradient20);stroke:none;stroke-width:2.1293"
     id="path1" />
</svg>
